<svg width="17" height="17" viewBox="0 0 17 17" fill="none" xmlns="http://www.w3.org/2000/svg">
<g id="bell-off" clip-path="url(#clip0_2564_5666)">
<path id="Icon" d="M9.41953 14.0783C9.30535 14.2752 9.14147 14.4386 8.94429 14.5521C8.74712 14.6657 8.52357 14.7255 8.29602 14.7255C8.06848 14.7255 7.84492 14.6657 7.64775 14.5521C7.45057 14.4386 7.28669 14.2752 7.17252 14.0783M12.6017 8.88295C12.3128 7.8253 12.1751 6.73208 12.1926 5.63582C12.1936 4.92994 12.0029 4.23703 11.6408 3.6311C11.2787 3.02518 10.7587 2.52901 10.1366 2.19558C9.5144 1.86215 8.81334 1.704 8.10827 1.73801C7.40321 1.77203 6.72063 1.99693 6.13344 2.38869M4.56832 4.50582C4.45549 4.87184 4.39857 5.2528 4.39947 5.63582C4.39947 10.1818 2.45119 11.4806 2.45119 11.4806H11.5431M1.15234 1.08984L15.4397 15.3772" stroke="#D0D5DD" stroke-width="1.30145" stroke-linecap="round" stroke-linejoin="round"/>
</g>
<defs>
<clipPath id="clip0_2564_5666">
<rect width="15.5862" height="15.5862" fill="white" transform="translate(0.50293 0.441406)"/>
</clipPath>
</defs>
</svg>
