<svg width="25" height="24" viewBox="0 0 25 24" fill="none" xmlns="http://www.w3.org/2000/svg">
<g id="bell">
<path id="Icon" d="M14.397 21C14.2212 21.3031 13.9688 21.5547 13.6652 21.7295C13.3616 21.9044 13.0174 21.9965 12.667 21.9965C12.3166 21.9965 11.9724 21.9044 11.6688 21.7295C11.3651 21.5547 11.1128 21.3031 10.937 21M18.667 8C18.667 6.4087 18.0349 4.88258 16.9096 3.75736C15.7844 2.63214 14.2583 2 12.667 2C11.0757 2 9.54957 2.63214 8.42435 3.75736C7.29913 4.88258 6.66699 6.4087 6.66699 8C6.66699 15 3.66699 17 3.66699 17H21.667C21.667 17 18.667 15 18.667 8Z" stroke="white" stroke-width="1.33" stroke-linecap="round" stroke-linejoin="round"/>
</g>
</svg>
