<svg width="21" height="21" viewBox="0 0 21 21" fill="none" xmlns="http://www.w3.org/2000/svg">
<path d="M18.9811 11.2135V14.5469C18.9811 17.4635 17.3145 18.7135 14.8145 18.7135H6.48112C3.98112 18.7135 2.31445 17.4635 2.31445 14.5469V11.2135C2.31445 9.00521 3.27279 7.75523 4.81445 7.28023C5.31445 7.1219 5.87279 7.04688 6.48112 7.04688H14.8145C15.4228 7.04688 15.9811 7.1219 16.4811 7.28023C18.0228 7.75523 18.9811 9.00521 18.9811 11.2135Z" stroke="#D8D8D8" stroke-width="0.953597" stroke-miterlimit="10" stroke-linecap="round" stroke-linejoin="round"/>
<path d="M16.4821 6.21745V7.28414C15.9821 7.12581 15.4238 7.05078 14.8154 7.05078H6.4821C5.87376 7.05078 5.31543 7.12581 4.81543 7.28414V6.21745C4.81543 5.30078 5.56543 4.55078 6.4821 4.55078H14.8154C15.7321 4.55078 16.4821 5.30078 16.4821 6.21745Z" stroke="#D8D8D8" stroke-width="0.953597" stroke-miterlimit="10" stroke-linecap="round" stroke-linejoin="round"/>
<path d="M13.9811 3.30912V4.55078H7.31445V3.30912C7.31445 2.61746 7.88113 2.05078 8.57279 2.05078H12.7228C13.4144 2.05078 13.9811 2.61746 13.9811 3.30912Z" stroke="#D8D8D8" stroke-width="0.953597" stroke-miterlimit="10" stroke-linecap="round" stroke-linejoin="round"/>
<path d="M8.20743 16.5867C8.81494 16.5867 9.30743 16.0942 9.30743 15.4867C9.30743 14.8792 8.81494 14.3867 8.20743 14.3867C7.59991 14.3867 7.10742 14.8792 7.10742 15.4867C7.10742 16.0942 7.59991 16.5867 8.20743 16.5867Z" stroke="#D8D8D8" stroke-width="0.95" stroke-linecap="round" stroke-linejoin="round"/>
<path d="M13.3571 14.7571V10.4488C13.3571 9.5321 12.7821 9.39877 12.1987 9.56543L9.99043 10.1654C9.59043 10.2737 9.31543 10.5904 9.31543 11.0487V11.8154V12.3321V15.4904" stroke="#D8D8D8" stroke-width="0.95" stroke-linecap="round" stroke-linejoin="round"/>
<path d="M12.2572 15.8563C12.8647 15.8563 13.3572 15.3638 13.3572 14.7563C13.3572 14.1487 12.8647 13.6562 12.2572 13.6562C11.6497 13.6562 11.1572 14.1487 11.1572 14.7563C11.1572 15.3638 11.6497 15.8563 12.2572 15.8563Z" stroke="#D8D8D8" stroke-width="0.95" stroke-linecap="round" stroke-linejoin="round"/>
<path d="M9.31543 12.3421L13.3571 11.2422" stroke="#D8D8D8" stroke-width="0.95" stroke-linecap="round" stroke-linejoin="round"/>
</svg>
