<svg width="21" height="21" viewBox="0 0 21 21" fill="none" xmlns="http://www.w3.org/2000/svg">
<path d="M18.8307 11.5846V8.2513C18.8307 4.08464 17.1641 2.41797 12.9974 2.41797H7.9974C3.83073 2.41797 2.16406 4.08464 2.16406 8.2513V13.2513C2.16406 17.418 3.83073 19.0846 7.9974 19.0846H11.3307" stroke="#D8D8D8" stroke-width="0.953597" stroke-linecap="round" stroke-linejoin="round"/>
<path d="M6.60645 12.8258L8.58978 10.2508C8.87312 9.88411 9.39812 9.81745 9.76479 10.1008L11.2898 11.3008C11.6565 11.5841 12.1814 11.5175 12.4648 11.1591L14.3898 8.67578" stroke="#D8D8D8" stroke-width="0.953597" stroke-linecap="round" stroke-linejoin="round"/>
<path d="M16.7317 13.9312L16.9651 14.4062C17.0817 14.6396 17.3734 14.8562 17.6317 14.9062L17.9484 14.9562C18.8984 15.1146 19.1234 15.8146 18.44 16.5062L18.1484 16.7979C17.9567 16.9979 17.8484 17.3812 17.9067 17.6479L17.9484 17.8229C18.2067 18.9729 17.5984 19.4146 16.5984 18.8146L16.3817 18.6896C16.1234 18.5396 15.7067 18.5396 15.4484 18.6896L15.2317 18.8146C14.2234 19.4229 13.615 18.9729 13.8817 17.8229L13.9234 17.6479C13.9817 17.3812 13.8734 16.9979 13.6817 16.7979L13.3901 16.5062C12.7067 15.8146 12.9317 15.1146 13.8817 14.9562L14.1984 14.9062C14.4484 14.8646 14.7484 14.6396 14.865 14.4062L15.0984 13.9312C15.5484 13.0229 16.2817 13.0229 16.7317 13.9312Z" stroke="#D8D8D8" stroke-width="0.953597" stroke-linecap="round" stroke-linejoin="round"/>
</svg>
