<svg width="21" height="21" viewBox="0 0 21 21" fill="none" xmlns="http://www.w3.org/2000/svg">
<path d="M3.82982 5.7263C2.77148 7.1263 2.14648 8.86797 2.14648 10.7513C2.14648 15.3513 5.87982 19.0846 10.4798 19.0846C15.0798 19.0846 18.8132 15.3513 18.8132 10.7513C18.8132 6.1513 15.0798 2.41797 10.4798 2.41797" stroke="#D8D8D8" stroke-width="0.953597" stroke-linecap="round" stroke-linejoin="round"/>
<path d="M4.64746 10.7513C4.64746 13.9763 7.25579 16.5846 10.4808 16.5846C13.7058 16.5846 16.3141 13.9763 16.3141 10.7513C16.3141 7.5263 13.7058 4.91797 10.4808 4.91797" stroke="#D8D8D8" stroke-width="0.953597" stroke-linecap="round" stroke-linejoin="round"/>
<path d="M10.4805 14.0807C12.3221 14.0807 13.8138 12.5891 13.8138 10.7474C13.8138 8.90573 12.3221 7.41406 10.4805 7.41406" stroke="#D8D8D8" stroke-width="0.953597" stroke-linecap="round" stroke-linejoin="round"/>
</svg>
