<svg width="25" height="24" viewBox="0 0 25 24" fill="none" xmlns="http://www.w3.org/2000/svg">
<g id="Huge-icon/interface/solid/home 3">
<path id="Subtract" fill-rule="evenodd" clip-rule="evenodd" d="M16.6804 22H8.31965C6.0109 22 4.1393 20.214 4.1393 18.0108V13.133C4.1393 12.4248 3.84447 11.7456 3.31969 11.2448C2.10381 10.0845 2.26187 8.16205 3.65251 7.19692L10.0412 2.763C11.5071 1.74567 13.4929 1.74567 14.9588 2.763L21.3475 7.19691C22.7381 8.16205 22.8962 10.0845 21.6803 11.2448C21.1555 11.7456 20.8607 12.4248 20.8607 13.133V18.0108C20.8607 20.214 18.9891 22 16.6804 22ZM10.5 17.25C10.0858 17.25 9.75 17.5858 9.75 18C9.75 18.4142 10.0858 18.75 10.5 18.75H14.5C14.9142 18.75 15.25 18.4142 15.25 18C15.25 17.5858 14.9142 17.25 14.5 17.25H10.5Z" fill="#FF375F"/>
</g>
</svg>
