<svg width="21" height="22" viewBox="0 0 21 22" fill="none" xmlns="http://www.w3.org/2000/svg">
<g id="layers">
<path id="Union" fill-rule="evenodd" clip-rule="evenodd" d="M9.27042 1.2747C10.0446 0.8876 10.9559 0.8876 11.7301 1.2747L19.0468 4.93306C20.3367 5.57798 20.3366 7.41864 19.0468 8.06356L11.7301 11.7219C10.9559 12.109 10.0446 12.109 9.27042 11.7219L1.9537 8.06355C0.663866 7.41864 0.663873 5.57797 1.95371 4.93306L9.27042 1.2747ZM0.814829 16.1936C0.983057 15.8151 1.42628 15.6446 1.80479 15.8129L9.99251 19.4519C10.3157 19.5955 10.6847 19.5955 11.0079 19.4519L19.1956 15.8129C19.5741 15.6446 20.0173 15.8151 20.1855 16.1936C20.3538 16.5721 20.1833 17.0154 19.8048 17.1836L11.6171 20.8226C10.906 21.1386 10.0944 21.1386 9.38331 20.8226L1.19558 17.1836C0.81707 17.0154 0.6466 16.5721 0.814829 16.1936ZM1.80479 11.3129C1.42628 11.1446 0.983057 11.3151 0.814829 11.6936C0.6466 12.0721 0.81707 12.5154 1.19558 12.6836L9.38331 16.3226C10.0944 16.6386 10.906 16.6386 11.6171 16.3226L19.8048 12.6836C20.1833 12.5154 20.3538 12.0721 20.1855 11.6936C20.0173 11.3151 19.5741 11.1446 19.1956 11.3129L11.0079 14.9519C10.6847 15.0955 10.3157 15.0955 9.99251 14.9519L1.80479 11.3129Z" fill="#FF375F"/>
</g>
</svg>
