<svg width="21" height="22" viewBox="0 0 21 22" fill="none" xmlns="http://www.w3.org/2000/svg">
<g id="layers">
<path id="Union" fill-rule="evenodd" clip-rule="evenodd" d="M9.27042 1.27665C10.0446 0.889553 10.9559 0.889553 11.7301 1.27665L19.0468 4.93501C20.3367 5.57993 20.3366 7.42059 19.0468 8.06551L11.7301 11.7239C10.9559 12.111 10.0446 12.111 9.27042 11.7239L1.9537 8.06551C0.663866 7.42059 0.663873 5.57993 1.95371 4.93501L9.27042 1.27665ZM0.814829 16.1956C0.983057 15.8171 1.42628 15.6466 1.80479 15.8148L9.99251 19.4538C10.3157 19.5975 10.6847 19.5975 11.0079 19.4538L19.1956 15.8148C19.5741 15.6466 20.0173 15.8171 20.1855 16.1956C20.3538 16.5741 20.1833 17.0173 19.8048 17.1855L11.6171 20.8245C10.906 21.1406 10.0944 21.1406 9.38331 20.8245L1.19558 17.1855C0.81707 17.0173 0.6466 16.5741 0.814829 16.1956ZM1.80479 11.3148C1.42628 11.1466 0.983057 11.3171 0.814829 11.6956C0.6466 12.0741 0.81707 12.5173 1.19558 12.6855L9.38331 16.3245C10.0944 16.6406 10.906 16.6406 11.6171 16.3245L19.8048 12.6855C20.1833 12.5173 20.3538 12.0741 20.1855 11.6956C20.0173 11.3171 19.5741 11.1466 19.1956 11.3148L11.0079 14.9538C10.6847 15.0975 10.3157 15.0975 9.99251 14.9538L1.80479 11.3148Z" fill="#E5E5EA"/>
</g>
</svg>
