<svg width="24" height="24" viewBox="0 0 24 24" fill="none" xmlns="http://www.w3.org/2000/svg">
<path d="M20.4201 12.2184C20.0101 12.2184 19.6701 11.8784 19.6701 11.4684V8.14844C19.6701 6.90844 18.6601 5.89844 17.4201 5.89844H3.58008C3.17008 5.89844 2.83008 5.55844 2.83008 5.14844C2.83008 4.73844 3.17008 4.39844 3.58008 4.39844H17.4201C19.4901 4.39844 21.1701 6.07844 21.1701 8.14844V11.4684C21.1701 11.8884 20.8301 12.2184 20.4201 12.2184Z" fill="#E9D7FE"/>
<path d="M6.74008 9.07144C6.55008 9.07144 6.36008 9.00141 6.21008 8.85141L3.05008 5.69144C2.91008 5.55144 2.83008 5.36141 2.83008 5.16141C2.83008 4.96141 2.91008 4.77144 3.05008 4.63144L6.21008 1.47141C6.50008 1.18141 6.98008 1.18141 7.27008 1.47141C7.56008 1.76141 7.56008 2.24146 7.27008 2.53146L4.64011 5.16141L7.27008 7.79141C7.56008 8.08141 7.56008 8.56141 7.27008 8.85141C7.12008 8.99141 6.93008 9.07144 6.74008 9.07144Z" fill="#E9D7FE"/>
<path d="M20.4201 19.5895H6.58008C4.51008 19.5895 2.83008 17.9095 2.83008 15.8395V12.5195C2.83008 12.1095 3.17008 11.7695 3.58008 11.7695C3.99008 11.7695 4.33008 12.1095 4.33008 12.5195V15.8395C4.33008 17.0795 5.34008 18.0895 6.58008 18.0895H20.4201C20.8301 18.0895 21.1701 18.4295 21.1701 18.8395C21.1701 19.2495 20.8301 19.5895 20.4201 19.5895Z" fill="#E9D7FE"/>
<path d="M17.2602 22.7511C17.0702 22.7511 16.8802 22.6811 16.7302 22.5311C16.4402 22.2411 16.4402 21.761 16.7302 21.471L19.3602 18.8411L16.7302 16.2111C16.4402 15.9211 16.4402 15.4411 16.7302 15.1511C17.0202 14.8611 17.5002 14.8611 17.7902 15.1511L20.9502 18.3111C21.0902 18.4511 21.1702 18.6411 21.1702 18.8411C21.1702 19.0411 21.0902 19.2311 20.9502 19.3711L17.7902 22.5311C17.6502 22.6811 17.4602 22.7511 17.2602 22.7511Z" fill="#E9D7FE"/>
</svg>
