<svg width="25" height="24" viewBox="0 0 25 24" fill="none" xmlns="http://www.w3.org/2000/svg">
<g id="settings" clip-path="url(#clip0_1857_2960)">
<g id="Icon">
<path d="M12.667 15C14.3238 15 15.667 13.6569 15.667 12C15.667 10.3431 14.3238 9 12.667 9C11.0101 9 9.66699 10.3431 9.66699 12C9.66699 13.6569 11.0101 15 12.667 15Z" stroke="white" stroke-width="1.33" stroke-linecap="round" stroke-linejoin="round"/>
<path d="M20.067 15C19.9339 15.3016 19.8942 15.6362 19.953 15.9606C20.0118 16.285 20.1665 16.5843 20.397 16.82L20.457 16.88C20.6429 17.0657 20.7905 17.2863 20.8911 17.5291C20.9918 17.7719 21.0436 18.0322 21.0436 18.295C21.0436 18.5578 20.9918 18.8181 20.8911 19.0609C20.7905 19.3037 20.6429 19.5243 20.457 19.71C20.2712 19.896 20.0507 20.0435 19.8079 20.1441C19.5651 20.2448 19.3048 20.2966 19.042 20.2966C18.7792 20.2966 18.5189 20.2448 18.2761 20.1441C18.0333 20.0435 17.8127 19.896 17.627 19.71L17.567 19.65C17.3313 19.4195 17.032 19.2648 16.7076 19.206C16.3832 19.1472 16.0486 19.1869 15.747 19.32C15.4512 19.4468 15.199 19.6572 15.0213 19.9255C14.8436 20.1938 14.7483 20.5082 14.747 20.83V21C14.747 21.5304 14.5363 22.0391 14.1612 22.4142C13.7861 22.7893 13.2774 23 12.747 23C12.2166 23 11.7079 22.7893 11.3328 22.4142C10.9577 22.0391 10.747 21.5304 10.747 21V20.91C10.7392 20.579 10.6321 20.258 10.4395 19.9887C10.2469 19.7194 9.97773 19.5143 9.66699 19.4C9.36538 19.2669 9.0308 19.2272 8.7064 19.286C8.38201 19.3448 8.08267 19.4995 7.84699 19.73L7.78699 19.79C7.60125 19.976 7.38067 20.1235 7.13787 20.2241C6.89508 20.3248 6.63482 20.3766 6.37199 20.3766C6.10916 20.3766 5.84891 20.3248 5.60611 20.2241C5.36332 20.1235 5.14274 19.976 4.95699 19.79C4.77104 19.6043 4.62352 19.3837 4.52287 19.1409C4.42222 18.8981 4.37042 18.6378 4.37042 18.375C4.37042 18.1122 4.42222 17.8519 4.52287 17.6091C4.62352 17.3663 4.77104 17.1457 4.95699 16.96L5.01699 16.9C5.24753 16.6643 5.40218 16.365 5.461 16.0406C5.51982 15.7162 5.48011 15.3816 5.34699 15.08C5.22023 14.7842 5.00975 14.532 4.74146 14.3543C4.47317 14.1766 4.15878 14.0813 3.83699 14.08H3.66699C3.13656 14.08 2.62785 13.8693 2.25278 13.4942C1.87771 13.1191 1.66699 12.6104 1.66699 12.08C1.66699 11.5496 1.87771 11.0409 2.25278 10.6658C2.62785 10.2907 3.13656 10.08 3.66699 10.08H3.75699C4.08799 10.0723 4.409 9.96512 4.67829 9.77251C4.94759 9.5799 5.15271 9.31074 5.26699 9C5.40011 8.69838 5.43982 8.36381 5.381 8.03941C5.32218 7.71502 5.16753 7.41568 4.93699 7.18L4.87699 7.12C4.69104 6.93425 4.54352 6.71368 4.44287 6.47088C4.34222 6.22808 4.29042 5.96783 4.29042 5.705C4.29042 5.44217 4.34222 5.18192 4.44287 4.93912C4.54352 4.69632 4.69104 4.47575 4.87699 4.29C5.06274 4.10405 5.28332 3.95653 5.52611 3.85588C5.76891 3.75523 6.02916 3.70343 6.29199 3.70343C6.55482 3.70343 6.81508 3.75523 7.05787 3.85588C7.30067 3.95653 7.52125 4.10405 7.70699 4.29L7.76699 4.35C8.00267 4.58054 8.30201 4.73519 8.6264 4.794C8.9508 4.85282 9.28538 4.81312 9.58699 4.68H9.66699C9.96276 4.55324 10.215 4.34276 10.3927 4.07447C10.5704 3.80618 10.6657 3.49179 10.667 3.17V3C10.667 2.46957 10.8777 1.96086 11.2528 1.58579C11.6279 1.21071 12.1366 1 12.667 1C13.1974 1 13.7061 1.21071 14.0812 1.58579C14.4563 1.96086 14.667 2.46957 14.667 3V3.09C14.6683 3.41179 14.7636 3.72618 14.9413 3.99447C15.119 4.26276 15.3712 4.47324 15.667 4.6C15.9686 4.73312 16.3032 4.77282 16.6276 4.714C16.952 4.65519 17.2513 4.50054 17.487 4.27L17.547 4.21C17.7327 4.02405 17.9533 3.87653 18.1961 3.77588C18.4389 3.67523 18.6992 3.62343 18.962 3.62343C19.2248 3.62343 19.4851 3.67523 19.7279 3.77588C19.9707 3.87653 20.1912 4.02405 20.377 4.21C20.5629 4.39575 20.7105 4.61632 20.8111 4.85912C20.9118 5.10192 20.9636 5.36217 20.9636 5.625C20.9636 5.88783 20.9118 6.14808 20.8111 6.39088C20.7105 6.63368 20.5629 6.85425 20.377 7.04L20.317 7.1C20.0865 7.33568 19.9318 7.63502 19.873 7.95941C19.8142 8.28381 19.8539 8.61838 19.987 8.92V9C20.1138 9.29577 20.3242 9.54802 20.5925 9.72569C20.8608 9.90337 21.1752 9.99872 21.497 10H21.667C22.1974 10 22.7061 10.2107 23.0812 10.5858C23.4563 10.9609 23.667 11.4696 23.667 12C23.667 12.5304 23.4563 13.0391 23.0812 13.4142C22.7061 13.7893 22.1974 14 21.667 14H21.577C21.2552 14.0013 20.9408 14.0966 20.6725 14.2743C20.4042 14.452 20.1938 14.7042 20.067 15Z" stroke="white" stroke-width="1.33" stroke-linecap="round" stroke-linejoin="round"/>
</g>
</g>
<defs>
<clipPath id="clip0_1857_2960">
<rect width="24" height="24" fill="white" transform="translate(0.666992)"/>
</clipPath>
</defs>
</svg>
