<svg width="24" height="24" viewBox="0 0 24 24" fill="none" xmlns="http://www.w3.org/2000/svg">
<path d="M5.56024 18.74C5.56024 18.74 5.55025 18.74 5.54025 18.74L2.99023 18.73C2.58023 18.73 2.24023 18.39 2.24023 17.98C2.24023 17.57 2.58023 17.23 2.99023 17.23L5.54025 17.24H5.55023C6.20023 17.24 6.81026 16.92 7.17026 16.37L13.5602 6.78998C14.2002 5.82998 15.2702 5.25 16.4302 5.25C16.4302 5.25 16.4403 5.25 16.4503 5.25L21.0002 5.27002C21.4102 5.27002 21.7502 5.61002 21.7502 6.02002C21.7502 6.43002 21.4102 6.77002 21.0002 6.77002L16.4503 6.75H16.4402C15.7902 6.75 15.1803 7.07 14.8203 7.62L8.43024 17.2C7.79024 18.17 6.72024 18.74 5.56024 18.74Z" fill="#E9D7FE"/>
<path d="M18.9995 20.7318C18.8095 20.7318 18.6195 20.6619 18.4695 20.5119C18.1795 20.2219 18.1795 19.7419 18.4695 19.4519L20.4695 17.4519C20.7595 17.1619 21.2395 17.1619 21.5295 17.4519C21.8195 17.7419 21.8195 18.2219 21.5295 18.5119L19.5295 20.5119C19.3795 20.6619 19.1895 20.7318 18.9995 20.7318Z" fill="#E9D7FE"/>
<path d="M8.89001 9.38171C8.66001 9.38171 8.43 9.27172 8.28 9.07172L7.20001 7.57172C6.83001 7.06172 6.21999 6.76172 5.60999 6.76172L3 6.77173C2.54 6.76173 2.25 6.44173 2.25 6.02173C2.25 5.61173 2.58 5.27173 3 5.27173L5.60999 5.26172C5.61999 5.26172 5.62 5.26172 5.63 5.26172C6.74001 5.26172 7.77999 5.80171 8.42999 6.69171L9.51001 8.19171C9.75001 8.53171 9.68 8.9917 9.34 9.2417C9.2 9.3317 9.05001 9.38171 8.89001 9.38171Z" fill="#E9D7FE"/>
<path d="M16.3195 18.7514C15.2595 18.7514 14.2395 18.2514 13.5895 17.4114L12.3695 15.8414C12.1195 15.5114 12.1795 15.0414 12.4995 14.7914C12.8295 14.5414 13.2995 14.6014 13.5495 14.9214L14.7695 16.4914C15.1395 16.9714 15.7295 17.2114 16.3195 17.2514L20.9895 17.2314C21.3995 17.2314 21.7395 17.5614 21.7395 17.9814C21.7395 18.3914 21.4095 18.7314 20.9895 18.7314L16.3195 18.7514C16.3295 18.7514 16.3195 18.7514 16.3195 18.7514Z" fill="#E9D7FE"/>
<path d="M20.9995 6.77097C20.8095 6.77097 20.6195 6.70094 20.4695 6.55094L18.4695 4.55094C18.1795 4.26094 18.1795 3.78094 18.4695 3.49094C18.7595 3.20094 19.2395 3.20094 19.5295 3.49094L21.5295 5.49094C21.8195 5.78094 21.8195 6.26094 21.5295 6.55094C21.3795 6.70094 21.1895 6.77097 20.9995 6.77097Z" fill="#E9D7FE"/>
</svg>
