<svg width="32" height="32" viewBox="0 0 32 32" fill="none" xmlns="http://www.w3.org/2000/svg">
<path d="M10.6667 15.1094L24.2973 6.0227C24.3977 5.95589 24.5144 5.91757 24.6348 5.9118C24.7553 5.90604 24.875 5.93306 24.9813 5.98998C25.0876 6.0469 25.1765 6.13158 25.2385 6.23502C25.3005 6.33846 25.3333 6.45677 25.3333 6.57736V25.42C25.3333 25.5406 25.3005 25.6589 25.2385 25.7624C25.1765 25.8658 25.0876 25.9505 24.9813 26.0074C24.875 26.0643 24.7553 26.0914 24.6348 26.0856C24.5144 26.0798 24.3977 26.0415 24.2973 25.9747L10.6667 16.888V25.332C10.6667 25.6857 10.5262 26.0248 10.2761 26.2748C10.0261 26.5249 9.68696 26.6654 9.33333 26.6654C8.97971 26.6654 8.64057 26.5249 8.39052 26.2748C8.14048 26.0248 8 25.6857 8 25.332V6.66536C8 6.31174 8.14048 5.9726 8.39052 5.72256C8.64057 5.47251 8.97971 5.33203 9.33333 5.33203C9.68696 5.33203 10.0261 5.47251 10.2761 5.72256C10.5262 5.9726 10.6667 6.31174 10.6667 6.66536V15.1094Z" fill="#FCFCFD"/>
</svg>
