<svg width="32" height="32" viewBox="0 0 32 32" fill="none" xmlns="http://www.w3.org/2000/svg">
<path d="M21.3333 15.1094L7.70267 6.0227C7.60228 5.95589 7.48564 5.91757 7.36519 5.9118C7.24474 5.90604 7.12498 5.93306 7.01867 5.98998C6.91236 6.0469 6.82347 6.13158 6.76149 6.23502C6.6995 6.33846 6.66673 6.45677 6.66667 6.57736V25.42C6.66673 25.5406 6.6995 25.6589 6.76149 25.7624C6.82347 25.8658 6.91236 25.9505 7.01867 26.0074C7.12498 26.0643 7.24474 26.0914 7.36519 26.0856C7.48564 26.0798 7.60228 26.0415 7.70267 25.9747L21.3333 16.888V25.332C21.3333 25.6857 21.4738 26.0248 21.7239 26.2748C21.9739 26.5249 22.313 26.6654 22.6667 26.6654C23.0203 26.6654 23.3594 26.5249 23.6095 26.2748C23.8595 26.0248 24 25.6857 24 25.332V6.66536C24 6.31174 23.8595 5.9726 23.6095 5.72256C23.3594 5.47251 23.0203 5.33203 22.6667 5.33203C22.313 5.33203 21.9739 5.47251 21.7239 5.72256C21.4738 5.9726 21.3333 6.31174 21.3333 6.66536V15.1094Z" fill="#FCFCFD"/>
</svg>
